<?xml version="1.0" encoding="UTF-8" standalone="no"?>
<!DOCTYPE svg PUBLIC "-//W3C//DTD SVG 1.1//EN" "http://www.w3.org/Graphics/SVG/1.1/DTD/svg11.dtd">
<svg xmlns="http://www.w3.org/2000/svg" version="1.1" viewBox="0.00 0.00 500.00 500.00">
<path fill="#fffffe" d="
  M 276.28 185.96
  Q 274.19 185.35 271.99 185.14
  C 238.40 181.96 212.98 203.01 191.91 226.14
  A 1.34 1.33 54.2 0 0 191.68 227.60
  Q 193.45 231.40 191.41 234.39
  C 186.29 241.89 175.46 234.13 180.55 226.89
  Q 183.04 223.35 188.04 224.36
  A 0.90 0.88 26.1 0 0 188.86 224.09
  C 201.98 209.47 217.80 195.24 236.07 187.07
  C 256.53 177.92 281.96 179.66 301.52 190.67
  C 313.88 197.62 326.40 209.57 328.87 224.06
  Q 329.37 226.96 328.04 224.33
  C 318.66 205.70 296.08 198.61 277.59 208.10
  C 267.28 213.39 258.35 221.30 250.41 229.66
  Q 237.59 243.17 226.01 257.76
  Q 225.69 258.16 225.74 258.68
  C 225.87 260.14 226.65 261.50 226.52 262.86
  C 225.74 271.49 213.85 270.95 213.29 263.00
  Q 212.92 257.71 218.08 256.19
  C 219.40 255.80 220.79 256.03 222.23 256.12
  Q 222.77 256.15 223.10 255.72
  C 234.71 240.86 247.60 225.85 261.80 214.05
  C 271.33 206.14 282.96 199.89 295.94 200.39
  Q 296.12 200.40 296.14 200.22
  L 296.14 200.21
  Q 296.17 200.03 295.99 200.00
  C 268.76 194.60 246.20 216.53 229.97 235.04
  A 1.09 1.08 53.5 0 0 229.80 236.19
  C 232.89 243.05 224.90 249.19 219.42 244.10
  C 214.22 239.29 219.12 230.97 226.02 232.97
  A 1.29 1.28 -61.5 0 0 227.35 232.57
  C 236.50 221.99 247.14 211.72 258.93 204.10
  Q 272.71 195.18 289.21 195.51
  Q 289.41 195.52 289.42 195.33
  L 289.42 195.32
  Q 289.44 195.13 289.26 195.09
  C 267.77 191.21 249.48 201.34 234.25 215.27
  Q 216.13 231.83 201.05 251.21
  Q 200.72 251.63 200.89 252.14
  C 201.32 253.50 202.03 254.77 201.89 256.21
  Q 201.36 261.50 196.83 262.41
  C 186.51 264.49 185.51 247.88 197.19 249.56
  A 0.91 0.89 22.7 0 0 198.04 249.22
  Q 211.72 231.64 227.65 216.16
  C 238.41 205.71 251.15 196.53 265.49 192.51
  Q 271.98 190.69 282.91 190.38
  Q 283.10 190.38 283.10 190.19
  L 283.10 190.18
  Q 283.11 189.99 282.92 189.98
  Q 274.04 189.53 271.00 189.54
  C 246.33 189.65 224.07 207.92 207.93 225.44
  Q 194.33 240.23 181.67 256.33
  A 1.10 1.09 47.9 0 0 181.61 257.60
  C 185.24 263.33 178.98 270.59 173.24 267.26
  C 167.22 263.78 168.91 254.68 176.30 254.75
  Q 177.08 254.75 177.90 254.74
  Q 178.40 254.74 178.70 254.35
  Q 192.98 235.94 207.42 220.67
  C 225.46 201.60 248.30 184.30 276.24 186.22
  Q 277.45 186.30 276.28 185.96
  Z
  M 190.02 230.75
  A 4.12 4.12 0.0 0 0 185.90 226.63
  A 4.12 4.12 0.0 0 0 181.78 230.75
  A 4.12 4.12 0.0 0 0 185.90 234.87
  A 4.12 4.12 0.0 0 0 190.02 230.75
  Z
  M 228.06 239.27
  A 4.11 4.11 0.0 0 0 223.95 235.16
  A 4.11 4.11 0.0 0 0 219.84 239.27
  A 4.11 4.11 0.0 0 0 223.95 243.38
  A 4.11 4.11 0.0 0 0 228.06 239.27
  Z
  M 199.43 256.04
  A 4.11 4.11 0.0 0 0 195.32 251.93
  A 4.11 4.11 0.0 0 0 191.21 256.04
  A 4.11 4.11 0.0 0 0 195.32 260.15
  A 4.11 4.11 0.0 0 0 199.43 256.04
  Z
  M 180.26 261.28
  A 4.12 4.12 0.0 0 0 176.14 257.16
  A 4.12 4.12 0.0 0 0 172.02 261.28
  A 4.12 4.12 0.0 0 0 176.14 265.40
  A 4.12 4.12 0.0 0 0 180.26 261.28
  Z
  M 224.07 262.54
  A 4.12 4.12 0.0 0 0 219.95 258.42
  A 4.12 4.12 0.0 0 0 215.83 262.54
  A 4.12 4.12 0.0 0 0 219.95 266.66
  A 4.12 4.12 0.0 0 0 224.07 262.54
  Z"
/>
<path fill="#fffffe" d="
  M 216.27 309.80
  Q 216.07 309.80 216.05 309.99
  L 216.05 310.00
  Q 216.04 310.20 216.23 310.23
  C 235.35 312.93 251.93 307.85 267.38 296.59
  C 287.06 282.24 302.89 263.22 317.86 244.20
  Q 318.19 243.78 318.05 243.27
  C 317.71 242.00 316.98 240.93 316.97 239.66
  C 316.89 234.32 321.51 230.98 326.33 233.18
  C 332.10 235.81 331.06 243.95 325.01 245.60
  C 324.02 245.87 322.74 245.64 321.56 245.81
  A 1.26 1.24 13.9 0 0 320.77 246.28
  Q 305.48 265.99 290.39 281.63
  C 279.90 292.51 265.89 303.94 252.01 309.57
  Q 242.26 313.52 229.50 314.33
  Q 225.13 314.61 222.71 313.77
  Q 222.49 313.69 222.42 313.92
  L 222.42 313.93
  Q 222.35 314.16 222.58 314.22
  C 224.00 314.63 225.39 315.13 226.86 315.28
  C 260.66 318.69 286.66 297.59 307.71 274.30
  A 1.48 1.47 53.1 0 0 307.94 272.66
  C 304.96 266.62 311.39 260.61 317.13 263.86
  C 323.73 267.59 319.95 277.52 311.65 276.01
  A 1.07 1.06 -63.8 0 0 310.66 276.35
  C 293.38 295.95 270.80 315.15 243.88 318.66
  Q 240.61 319.08 231.97 318.91
  C 212.29 318.51 194.97 310.63 181.37 296.39
  C 176.31 291.10 171.19 283.02 170.82 275.51
  Q 170.77 274.44 171.23 275.41
  C 179.64 293.11 200.46 300.92 218.52 293.96
  C 232.65 288.51 245.37 275.33 256.11 263.36
  Q 265.31 253.10 273.93 242.30
  A 1.00 1.00 0.0 0 0 274.02 241.20
  C 270.85 235.31 276.84 228.90 282.76 231.90
  C 288.22 234.67 287.16 242.97 281.04 244.35
  C 279.83 244.62 278.72 244.38 277.41 244.24
  Q 276.90 244.19 276.59 244.60
  Q 263.98 260.88 249.68 275.67
  C 237.62 288.16 221.55 300.61 203.48 300.09
  Q 203.31 300.08 203.29 300.26
  L 203.29 300.26
  Q 203.27 300.43 203.44 300.46
  C 217.81 303.19 230.69 299.09 242.37 290.58
  Q 257.55 279.52 269.76 265.23
  A 0.84 0.82 53.0 0 0 269.88 264.32
  C 266.95 258.14 273.21 252.10 279.09 255.39
  C 284.12 258.19 283.08 266.39 277.09 267.64
  C 275.84 267.90 274.60 267.63 273.27 267.48
  A 1.01 1.00 23.6 0 0 272.42 267.81
  C 255.44 286.63 236.47 305.23 209.88 305.01
  Q 209.76 305.01 209.75 305.11
  Q 209.75 305.15 209.75 305.19
  Q 209.76 305.24 209.83 305.25
  Q 230.95 308.66 248.96 297.44
  C 268.03 285.56 283.77 267.77 298.15 249.89
  C 299.55 248.15 298.00 246.82 297.85 245.30
  C 297.14 237.98 306.35 234.75 310.05 241.00
  C 313.14 246.22 308.43 251.92 302.69 250.87
  A 1.17 1.16 -65.4 0 0 301.56 251.30
  C 287.62 268.96 271.91 286.60 253.81 298.82
  Q 236.84 310.28 216.27 309.80
  Z
  M 283.84 237.86
  A 4.12 4.12 0.0 0 0 279.72 233.74
  A 4.12 4.12 0.0 0 0 275.60 237.86
  A 4.12 4.12 0.0 0 0 279.72 241.98
  A 4.12 4.12 0.0 0 0 283.84 237.86
  Z
  M 327.63 239.13
  A 4.12 4.12 0.0 0 0 323.51 235.01
  A 4.12 4.12 0.0 0 0 319.39 239.13
  A 4.12 4.12 0.0 0 0 323.51 243.25
  A 4.12 4.12 0.0 0 0 327.63 239.13
  Z
  M 308.47 244.35
  A 4.12 4.12 0.0 0 0 304.35 240.23
  A 4.12 4.12 0.0 0 0 300.23 244.35
  A 4.12 4.12 0.0 0 0 304.35 248.47
  A 4.12 4.12 0.0 0 0 308.47 244.35
  Z
  M 279.86 261.13
  A 4.11 4.11 0.0 0 0 275.75 257.02
  A 4.11 4.11 0.0 0 0 271.64 261.13
  A 4.11 4.11 0.0 0 0 275.75 265.24
  A 4.11 4.11 0.0 0 0 279.86 261.13
  Z
  M 317.92 269.65
  A 4.13 4.13 0.0 0 0 313.79 265.52
  A 4.13 4.13 0.0 0 0 309.66 269.65
  A 4.13 4.13 0.0 0 0 313.79 273.78
  A 4.13 4.13 0.0 0 0 317.92 269.65
  Z"
/>
</svg>
