<?xml version="1.0" encoding="UTF-8" standalone="no"?>
<!DOCTYPE svg PUBLIC "-//W3C//DTD SVG 1.1//EN" "http://www.w3.org/Graphics/SVG/1.1/DTD/svg11.dtd">
<svg xmlns="http://www.w3.org/2000/svg" version="1.1" viewBox="0.00 0.00 500.00 500.00">
<path fill="#999999" d="
  M 282.85 148.90
  Q 263.84 145.76 248.51 152.80
  C 232.49 160.16 218.68 172.08 206.96 184.96
  Q 193.69 199.53 181.65 214.78
  A 0.96 0.95 48.5 0 0 181.59 215.87
  C 185.35 221.93 179.19 228.85 172.98 225.58
  C 169.24 223.60 168.48 218.33 171.22 215.32
  Q 173.36 212.96 177.67 212.97
  Q 178.46 212.97 178.95 212.35
  Q 191.41 196.42 205.63 181.13
  C 224.21 161.15 246.41 143.39 275.52 144.26
  Q 275.68 144.27 275.70 144.11
  L 275.70 144.10
  Q 275.71 143.94 275.55 143.91
  C 240.28 138.89 213.83 160.64 191.87 184.55
  A 1.16 1.15 -37.9 0 0 191.70 185.86
  C 193.61 189.47 192.04 194.31 188.01 195.60
  C 177.75 198.90 175.64 180.80 187.45 182.71
  C 188.21 182.83 188.80 182.70 189.34 182.09
  C 200.61 169.34 214.39 156.86 229.77 148.54
  C 255.71 134.52 286.27 137.01 309.86 154.63
  C 318.79 161.29 327.07 171.19 328.92 182.47
  Q 329.37 185.19 328.09 182.75
  Q 319.61 166.54 302.17 163.10
  C 282.94 159.31 267.02 171.51 254.36 184.15
  Q 239.28 199.20 225.89 216.60
  A 1.02 1.01 50.5 0 0 225.79 217.69
  C 229.11 224.12 221.81 230.55 215.99 226.32
  C 210.05 221.99 214.36 213.28 221.67 214.43
  A 1.68 1.67 23.6 0 0 223.26 213.81
  Q 236.29 197.20 250.56 182.57
  C 262.32 170.51 277.33 158.86 295.00 158.67
  Q 295.04 158.67 295.04 158.63
  L 295.03 158.30
  Q 295.03 158.06 294.79 158.03
  C 280.29 155.84 268.26 160.28 256.69 168.74
  Q 241.89 179.56 230.02 193.47
  A 0.95 0.93 -36.9 0 0 229.87 194.45
  Q 231.73 198.70 229.18 201.81
  C 223.34 208.90 212.81 199.81 219.05 193.19
  Q 221.49 190.60 226.40 191.09
  Q 227.29 191.18 227.85 190.49
  C 236.44 179.86 247.89 169.77 259.35 162.36
  Q 272.83 153.65 288.21 153.99
  Q 290.73 154.05 288.26 153.52
  C 252.88 145.88 220.16 185.78 200.93 209.70
  Q 200.59 210.12 200.85 210.60
  C 206.62 221.45 189.26 225.21 188.66 215.05
  C 188.42 210.99 191.51 207.59 195.75 207.84
  C 197.04 207.92 197.49 208.31 198.42 207.13
  Q 209.89 192.46 222.84 179.09
  C 235.76 165.75 252.34 152.96 271.08 149.77
  C 274.61 149.17 278.87 149.16 282.85 149.01
  Q 283.40 148.99 282.85 148.90
  Z
  M 189.93 189.11
  A 4.05 4.05 0.0 0 0 185.88 185.06
  A 4.05 4.05 0.0 0 0 181.83 189.11
  A 4.05 4.05 0.0 0 0 185.88 193.16
  A 4.05 4.05 0.0 0 0 189.93 189.11
  Z
  M 228.00 197.69
  A 4.04 4.04 0.0 0 0 223.96 193.65
  A 4.04 4.04 0.0 0 0 219.92 197.69
  A 4.04 4.04 0.0 0 0 223.96 201.73
  A 4.04 4.04 0.0 0 0 228.00 197.69
  Z
  M 199.41 214.44
  A 4.10 4.10 0.0 0 0 195.31 210.34
  A 4.10 4.10 0.0 0 0 191.21 214.44
  A 4.10 4.10 0.0 0 0 195.31 218.54
  A 4.10 4.10 0.0 0 0 199.41 214.44
  Z
  M 180.26 219.66
  A 4.11 4.11 0.0 0 0 176.15 215.55
  A 4.11 4.11 0.0 0 0 172.04 219.66
  A 4.11 4.11 0.0 0 0 176.15 223.77
  A 4.11 4.11 0.0 0 0 180.26 219.66
  Z
  M 224.02 220.98
  A 4.08 4.08 0.0 0 0 219.94 216.90
  A 4.08 4.08 0.0 0 0 215.86 220.98
  A 4.08 4.08 0.0 0 0 219.94 225.06
  A 4.08 4.08 0.0 0 0 224.02 220.98
  Z"
/>
<path fill="#999999" d="
  M 217.39 268.54
  Q 217.18 268.55 217.19 268.76
  L 217.19 268.76
  Q 217.19 268.97 217.39 268.98
  Q 227.51 269.60 233.76 268.97
  C 253.81 266.95 272.59 253.15 286.88 238.37
  Q 303.41 221.25 317.97 202.39
  Q 318.31 201.95 318.05 201.45
  C 311.88 189.28 331.67 187.23 330.16 198.50
  C 329.70 201.95 326.45 204.43 322.76 204.08
  Q 322.32 204.03 321.87 204.06
  Q 321.35 204.09 321.03 204.49
  C 303.87 226.18 285.31 249.12 261.19 263.40
  Q 243.51 273.87 222.89 272.76
  Q 222.77 272.75 222.76 272.87
  Q 222.75 272.90 222.75 272.93
  Q 222.75 272.99 222.81 273.00
  C 259.22 279.06 285.28 256.68 308.06 232.41
  A 0.76 0.76 0.0 0 0 308.17 231.51
  C 304.87 225.54 310.96 219.04 317.01 222.19
  C 322.88 225.24 320.96 233.85 314.36 234.68
  C 313.48 234.78 312.49 234.49 311.44 234.47
  A 1.05 1.03 20.1 0 0 310.65 234.83
  C 294.93 252.76 273.65 271.13 249.63 276.10
  C 226.55 280.88 202.22 274.37 184.66 258.36
  C 178.06 252.34 171.63 243.13 170.75 234.00
  Q 170.63 232.73 171.22 233.86
  C 181.52 253.40 203.64 260.68 223.51 250.01
  C 234.22 244.26 244.13 235.01 252.29 226.04
  Q 263.46 213.76 273.85 200.78
  A 1.03 1.02 -39.1 0 0 273.97 199.67
  C 270.74 193.13 277.57 186.73 283.51 190.79
  C 288.70 194.34 286.43 202.43 280.04 202.91
  C 279.35 202.97 278.30 202.73 277.39 202.75
  Q 276.91 202.77 276.62 203.14
  C 264.85 217.87 252.18 232.92 237.94 244.69
  C 228.28 252.68 217.03 258.65 204.01 258.56
  Q 203.83 258.56 203.82 258.73
  L 203.82 258.74
  Q 203.80 258.91 203.97 258.94
  C 231.37 263.81 253.35 242.29 269.74 223.72
  A 1.09 1.08 -39.4 0 0 269.87 222.48
  C 265.06 213.73 280.34 208.65 282.18 217.92
  C 283.00 222.08 280.50 225.68 276.17 226.12
  C 275.33 226.20 274.13 225.96 273.10 225.95
  Q 272.60 225.94 272.26 226.33
  C 260.61 239.79 243.84 256.17 226.10 261.40
  C 220.67 263.00 215.62 263.14 210.43 263.55
  Q 209.34 263.64 210.43 263.80
  Q 233.26 267.17 252.55 253.79
  C 270.53 241.32 285.06 224.56 298.75 207.47
  Q 299.18 206.93 298.82 206.34
  Q 296.80 203.05 298.34 199.93
  C 302.18 192.18 313.92 197.44 310.34 205.56
  Q 308.47 209.81 302.89 209.31
  Q 301.86 209.22 301.23 210.04
  Q 286.55 229.06 268.89 245.63
  C 260.79 253.22 249.54 261.11 238.72 264.91
  C 231.78 267.35 225.60 267.90 217.39 268.54
  Z
  M 283.83 196.26
  A 4.07 4.07 0.0 0 0 279.76 192.19
  A 4.07 4.07 0.0 0 0 275.69 196.26
  A 4.07 4.07 0.0 0 0 279.76 200.33
  A 4.07 4.07 0.0 0 0 283.83 196.26
  Z
  M 327.65 197.53
  A 4.11 4.11 0.0 0 0 323.54 193.42
  A 4.11 4.11 0.0 0 0 319.43 197.53
  A 4.11 4.11 0.0 0 0 323.54 201.64
  A 4.11 4.11 0.0 0 0 327.65 197.53
  Z
  M 308.48 202.77
  A 4.12 4.12 0.0 0 0 304.36 198.65
  A 4.12 4.12 0.0 0 0 300.24 202.77
  A 4.12 4.12 0.0 0 0 304.36 206.89
  A 4.12 4.12 0.0 0 0 308.48 202.77
  Z
  M 279.84 219.53
  A 4.10 4.10 0.0 0 0 275.74 215.43
  A 4.10 4.10 0.0 0 0 271.64 219.53
  A 4.10 4.10 0.0 0 0 275.74 223.63
  A 4.10 4.10 0.0 0 0 279.84 219.53
  Z
  M 317.84 228.02
  A 4.08 4.08 0.0 0 0 313.76 223.94
  A 4.08 4.08 0.0 0 0 309.68 228.02
  A 4.08 4.08 0.0 0 0 313.76 232.10
  A 4.08 4.08 0.0 0 0 317.84 228.02
  Z"
/>
<path fill="#999999" d="
  M 140.80 313.00
  C 140.70 316.21 142.84 319.30 145.88 320.56
  Q 152.05 323.10 156.43 317.23
  Q 156.61 316.99 156.87 317.12
  L 161.50 319.52
  A 0.28 0.28 0.0 0 1 161.61 319.92
  C 156.00 329.16 142.29 330.01 136.86 320.55
  C 127.32 303.92 151.27 289.42 161.64 306.09
  Q 161.79 306.33 161.54 306.46
  L 156.74 308.95
  A 0.30 0.29 -28.8 0 1 156.35 308.84
  C 151.93 301.37 141.06 304.64 140.80 313.00
  Z"
/>
<path fill="#999999" d="
  M 195.42 313.00
  A 14.31 14.31 0.0 0 1 181.11 327.31
  A 14.31 14.31 0.0 0 1 166.80 313.00
  A 14.31 14.31 0.0 0 1 181.11 298.69
  A 14.31 14.31 0.0 0 1 195.42 313.00
  Z
  M 189.41 313.00
  A 8.29 8.29 0.0 0 0 181.12 304.71
  A 8.29 8.29 0.0 0 0 172.83 313.00
  A 8.29 8.29 0.0 0 0 181.12 321.29
  A 8.29 8.29 0.0 0 0 189.41 313.00
  Z"
/>
<path fill="#999999" d="
  M 323.42 313.00
  A 14.31 14.31 0.0 0 1 309.11 327.31
  A 14.31 14.31 0.0 0 1 294.80 313.00
  A 14.31 14.31 0.0 0 1 309.11 298.69
  A 14.31 14.31 0.0 0 1 323.42 313.00
  Z
  M 317.41 313.00
  A 8.29 8.29 0.0 0 0 309.12 304.71
  A 8.29 8.29 0.0 0 0 300.83 313.00
  A 8.29 8.29 0.0 0 0 309.12 321.29
  A 8.29 8.29 0.0 0 0 317.41 313.00
  Z"
/>
<path fill="#999999" d="
  M 201.72 299.49
  A 0.49 0.49 0.0 0 1 202.21 299.00
  L 210.48 299.00
  A 14.46 13.86 0.0 0 1 224.94 312.86
  L 224.94 313.18
  A 14.46 13.86 0.0 0 1 210.48 327.04
  L 202.21 327.04
  A 0.49 0.49 0.0 0 1 201.72 326.55
  L 201.72 299.49
  Z
  M 207.89 304.81
  L 207.89 321.17
  A 0.38 0.38 0.0 0 0 208.27 321.55
  L 210.55 321.55
  A 8.36 8.22 -90.0 0 0 218.77 313.19
  L 218.77 312.79
  A 8.36 8.22 90.0 0 0 210.55 304.43
  L 208.27 304.43
  A 0.38 0.38 0.0 0 0 207.89 304.81
  Z"
/>
<path fill="#999999" d="
  M 237.11 316.04
  L 237.13 321.27
  A 0.33 0.33 0.0 0 0 237.46 321.60
  L 247.43 321.62
  A 0.33 0.33 0.0 0 1 247.76 321.94
  L 247.84 326.66
  A 0.33 0.33 0.0 0 1 247.51 327.00
  L 231.33 327.00
  A 0.33 0.33 0.0 0 1 231.00 326.67
  L 231.00 299.33
  A 0.33 0.33 0.0 0 1 231.33 299.00
  L 247.50 299.00
  A 0.33 0.33 0.0 0 1 247.83 299.33
  L 247.76 304.06
  A 0.33 0.33 0.0 0 1 247.43 304.39
  L 237.45 304.39
  A 0.33 0.33 0.0 0 0 237.12 304.72
  L 237.13 309.96
  A 0.33 0.33 0.0 0 0 237.46 310.29
  L 245.93 310.29
  A 0.33 0.33 0.0 0 1 246.26 310.62
  L 246.26 315.38
  A 0.33 0.33 0.0 0 1 245.93 315.71
  L 237.44 315.71
  A 0.33 0.33 0.0 0 0 237.11 316.04
  Z"
/>
<path fill="#999999" d="
  M 261.11 316.04
  L 261.14 326.67
  A 0.33 0.33 0.0 0 1 260.81 327.00
  L 255.33 327.00
  A 0.33 0.33 0.0 0 1 255.00 326.67
  L 255.00 299.33
  A 0.33 0.33 0.0 0 1 255.33 299.00
  L 271.50 299.00
  A 0.33 0.33 0.0 0 1 271.83 299.33
  L 271.77 304.05
  A 0.33 0.33 0.0 0 1 271.44 304.38
  L 261.45 304.40
  A 0.33 0.33 0.0 0 0 261.12 304.73
  L 261.13 309.96
  A 0.33 0.33 0.0 0 0 261.46 310.29
  L 269.93 310.29
  A 0.33 0.33 0.0 0 1 270.26 310.62
  L 270.26 315.38
  A 0.33 0.33 0.0 0 1 269.93 315.71
  L 261.44 315.71
  A 0.33 0.33 0.0 0 0 261.11 316.04
  Z"
/>
<path fill="#999999" d="
  M 283.24 321.53
  L 291.85 321.54
  A 0.35 0.35 0.0 0 1 292.20 321.89
  L 292.22 326.65
  A 0.35 0.35 0.0 0 1 291.87 327.00
  L 277.10 327.00
  A 0.35 0.35 0.0 0 1 276.75 326.65
  L 276.75 299.35
  A 0.35 0.35 0.0 0 1 277.10 299.00
  L 282.55 299.00
  A 0.35 0.35 0.0 0 1 282.90 299.35
  L 282.89 321.18
  A 0.35 0.35 0.0 0 0 283.24 321.53
  Z"
/>
<path fill="#999999" d="
  M 343.45 299.00
  L 348.91 299.00
  A 0.31 0.31 0.0 0 1 349.21 299.23
  L 354.23 317.40
  A 0.31 0.31 0.0 0 0 354.83 317.39
  L 359.48 299.23
  A 0.31 0.31 0.0 0 1 359.78 299.00
  L 365.58 299.01
  A 0.31 0.31 0.0 0 1 365.88 299.40
  L 358.40 326.77
  A 0.31 0.31 0.0 0 1 358.10 327.00
  L 351.52 327.00
  A 0.31 0.31 0.0 0 1 351.22 326.77
  L 346.48 308.37
  A 0.31 0.31 0.0 0 0 345.88 308.37
  L 341.14 326.77
  A 0.31 0.31 0.0 0 1 340.84 327.00
  L 334.26 327.00
  A 0.31 0.31 0.0 0 1 333.96 326.77
  L 326.49 299.41
  A 0.31 0.31 0.0 0 1 326.78 299.02
  L 332.58 298.99
  A 0.31 0.31 0.0 0 1 332.88 299.22
  L 337.58 317.46
  A 0.31 0.31 0.0 0 0 338.18 317.46
  L 343.15 299.23
  A 0.31 0.31 0.0 0 1 343.45 299.00
  Z"
/>
<rect fill="#999999" x="175.24" y="345.02" width="1.26" height="11.92" rx="0.43"/>
<path fill="#999999" d="
  M 185.73 356.97
  L 185.05 356.95
  A 0.28 0.28 0.0 0 1 184.78 356.67
  L 184.79 344.27
  A 0.28 0.28 0.0 0 1 185.29 344.10
  L 192.96 354.30
  A 0.28 0.28 0.0 0 0 193.47 354.13
  L 193.44 345.32
  A 0.28 0.28 0.0 0 1 193.71 345.04
  L 194.41 345.01
  A 0.28 0.28 0.0 0 1 194.70 345.29
  L 194.67 357.78
  A 0.28 0.28 0.0 0 1 194.17 357.94
  L 186.54 347.71
  A 0.28 0.28 0.0 0 0 186.04 347.87
  L 186.02 356.69
  A 0.28 0.28 0.0 0 1 185.73 356.97
  Z"
/>
<path fill="#999999" d="
  M 203.73 356.97
  L 203.05 356.95
  A 0.28 0.28 0.0 0 1 202.78 356.67
  L 202.78 344.26
  A 0.28 0.28 0.0 0 1 203.28 344.09
  L 210.96 354.31
  A 0.28 0.28 0.0 0 0 211.47 354.14
  L 211.43 345.32
  A 0.28 0.28 0.0 0 1 211.70 345.04
  L 212.41 345.01
  A 0.28 0.28 0.0 0 1 212.70 345.29
  L 212.67 357.78
  A 0.28 0.28 0.0 0 1 212.17 357.95
  L 204.54 347.71
  A 0.28 0.28 0.0 0 0 204.04 347.88
  L 204.02 356.69
  A 0.28 0.28 0.0 0 1 203.73 356.97
  Z"
/>
<path fill="#999999" d="
  M 232.87 351.00
  A 6.06 6.06 0.0 0 1 226.81 357.06
  A 6.06 6.06 0.0 0 1 220.75 351.00
  A 6.06 6.06 0.0 0 1 226.81 344.94
  A 6.06 6.06 0.0 0 1 232.87 351.00
  Z
  M 231.65 351.00
  A 4.84 4.84 0.0 0 0 226.81 346.16
  A 4.84 4.84 0.0 0 0 221.97 351.00
  A 4.84 4.84 0.0 0 0 226.81 355.84
  A 4.84 4.84 0.0 0 0 231.65 351.00
  Z"
/>
<path fill="#999999" d="
  M 244.68 354.65
  L 247.99 345.14
  A 0.29 0.29 0.0 0 1 248.30 344.94
  L 249.02 345.02
  A 0.29 0.29 0.0 0 1 249.26 345.41
  L 245.15 356.81
  A 0.29 0.29 0.0 0 1 244.87 357.00
  L 243.89 356.99
  A 0.29 0.29 0.0 0 1 243.62 356.80
  L 239.52 345.46
  A 0.29 0.29 0.0 0 1 239.76 345.07
  L 240.49 344.99
  A 0.29 0.29 0.0 0 1 240.80 345.19
  L 244.13 354.65
  A 0.29 0.29 0.0 0 0 244.68 354.65
  Z"
/>
<path fill="#999999" d="
  M 261.81 354.22
  L 257.70 354.20
  Q 257.04 354.20 256.81 354.83
  L 256.16 356.68
  Q 256.02 357.07 255.60 357.02
  L 255.13 356.95
  Q 254.71 356.90 254.85 356.50
  L 258.50 346.50
  Q 259.73 343.13 260.95 346.51
  L 264.56 356.46
  Q 264.75 356.98 264.19 356.98
  L 263.68 356.98
  Q 263.35 356.99 263.24 356.66
  L 262.61 354.80
  A 0.86 0.85 -8.6 0 0 261.81 354.22
  Z
  M 257.59 352.60
  A 0.31 0.31 0.0 0 0 257.88 353.01
  L 261.58 352.99
  A 0.31 0.31 0.0 0 0 261.87 352.57
  L 259.99 347.33
  A 0.31 0.31 0.0 0 0 259.41 347.33
  L 257.59 352.60
  Z"
/>
<path fill="#999999" d="
  M 273.58 346.26
  L 270.78 346.25
  A 0.28 0.28 0.0 0 1 270.50 345.97
  L 270.52 345.29
  A 0.28 0.28 0.0 0 1 270.79 345.02
  L 278.18 345.00
  A 0.28 0.28 0.0 0 1 278.46 345.27
  L 278.47 345.96
  A 0.28 0.28 0.0 0 1 278.19 346.25
  L 275.34 346.27
  A 0.28 0.28 0.0 0 0 275.06 346.55
  L 275.06 356.70
  A 0.28 0.28 0.0 0 1 274.76 356.98
  L 274.10 356.95
  A 0.28 0.28 0.0 0 1 273.84 356.67
  L 273.86 346.54
  A 0.28 0.28 0.0 0 0 273.58 346.26
  Z"
/>
<rect fill="#999999" x="285.54" y="345.04" width="1.28" height="11.92" rx="0.37"/>
<path fill="#999999" d="
  M 306.87 351.00
  A 6.06 6.06 0.0 0 1 300.81 357.06
  A 6.06 6.06 0.0 0 1 294.75 351.00
  A 6.06 6.06 0.0 0 1 300.81 344.94
  A 6.06 6.06 0.0 0 1 306.87 351.00
  Z
  M 305.65 351.00
  A 4.84 4.84 0.0 0 0 300.81 346.16
  A 4.84 4.84 0.0 0 0 295.97 351.00
  A 4.84 4.84 0.0 0 0 300.81 355.84
  A 4.84 4.84 0.0 0 0 305.65 351.00
  Z"
/>
<path fill="#999999" d="
  M 315.73 356.97
  L 315.05 356.95
  A 0.28 0.28 0.0 0 1 314.78 356.67
  L 314.79 344.26
  A 0.28 0.28 0.0 0 1 315.29 344.09
  L 322.96 354.30
  A 0.28 0.28 0.0 0 0 323.46 354.13
  L 323.46 345.33
  A 0.28 0.28 0.0 0 1 323.75 345.05
  L 324.42 345.06
  A 0.28 0.28 0.0 0 1 324.69 345.34
  L 324.66 357.76
  A 0.28 0.28 0.0 0 1 324.16 357.93
  L 316.54 347.71
  A 0.28 0.28 0.0 0 0 316.04 347.88
  L 316.02 356.69
  A 0.28 0.28 0.0 0 1 315.73 356.97
  Z"
/>
</svg>
