<?xml version="1.0" encoding="UTF-8" standalone="no"?>
<!DOCTYPE svg PUBLIC "-//W3C//DTD SVG 1.1//EN" "http://www.w3.org/Graphics/SVG/1.1/DTD/svg11.dtd">
<svg xmlns="http://www.w3.org/2000/svg" version="1.1" viewBox="0.00 0.00 500.00 500.00">
<path fill="#0897e9" d="
  M 289.14 153.48
  Q 267.28 150.22 248.97 162.28
  C 230.45 174.47 214.79 192.44 201.32 209.19
  Q 201.03 209.55 200.86 209.98
  Q 200.53 210.83 201.02 211.26
  Q 201.40 211.59 201.54 212.07
  C 203.60 219.31 195.18 224.36 190.26 218.74
  C 186.23 214.15 190.32 206.57 196.96 208.14
  Q 197.45 208.25 197.77 207.86
  C 211.10 191.06 226.92 172.93 245.11 160.35
  Q 261.85 148.78 282.31 149.03
  Q 282.54 149.03 282.55 148.81
  L 282.55 148.80
  Q 282.57 148.57 282.34 148.54
  C 251.54 144.40 228.52 162.03 208.82 183.06
  Q 194.49 198.36 181.59 214.90
  Q 181.27 215.31 181.55 215.75
  C 184.82 220.92 181.07 226.93 175.00 226.23
  C 167.43 225.37 167.52 212.32 177.74 213.09
  Q 178.21 213.13 178.50 212.77
  C 192.01 196.08 209.33 174.74 227.94 160.66
  C 242.01 150.03 257.78 143.62 275.55 144.37
  Q 275.68 144.37 275.69 144.24
  L 275.70 143.98
  Q 275.72 143.73 275.47 143.70
  Q 256.12 141.34 239.34 148.06
  C 221.37 155.25 204.65 170.18 191.67 184.89
  A 0.74 0.74 0.0 0 0 191.55 185.69
  C 195.83 194.81 183.26 199.82 179.89 191.85
  C 177.54 186.31 182.11 181.78 188.01 182.78
  A 0.88 0.86 -63.6 0 0 188.82 182.50
  C 207.87 161.43 231.55 141.13 260.99 139.80
  Q 291.72 138.42 314.50 158.51
  C 321.77 164.92 327.78 173.85 328.98 183.48
  Q 329.14 184.72 328.58 183.61
  Q 320.58 167.78 304.10 163.50
  C 289.10 159.60 276.83 165.39 265.28 174.50
  C 250.30 186.32 237.54 201.61 225.74 216.52
  Q 225.42 216.93 225.62 217.41
  Q 228.30 223.76 223.23 226.62
  Q 220.93 227.91 218.60 227.48
  C 210.15 225.90 212.66 212.04 221.97 214.67
  Q 222.44 214.80 222.75 214.42
  C 236.81 197.07 251.77 178.48 270.64 166.10
  C 277.50 161.61 286.64 158.22 294.91 158.96
  Q 295.79 159.04 295.02 158.59
  Q 293.83 157.89 292.50 157.76
  C 266.42 155.24 245.64 175.61 229.91 193.51
  Q 229.57 193.90 229.74 194.39
  C 230.26 195.91 230.85 197.35 230.51 198.94
  C 229.41 204.22 222.84 205.98 219.19 202.31
  C 214.28 197.40 219.42 189.32 226.40 191.48
  Q 226.77 191.60 227.02 191.31
  C 242.53 173.63 263.83 152.67 289.33 154.09
  Q 289.37 154.10 289.37 154.06
  L 289.40 153.80
  Q 289.42 153.52 289.14 153.48
  Z
  M 189.97 189.15
  A 4.08 4.08 0.0 0 0 185.89 185.07
  A 4.08 4.08 0.0 0 0 181.81 189.15
  A 4.08 4.08 0.0 0 0 185.89 193.23
  A 4.08 4.08 0.0 0 0 189.97 189.15
  Z
  M 228.02 197.66
  A 4.07 4.07 0.0 0 0 223.95 193.59
  A 4.07 4.07 0.0 0 0 219.88 197.66
  A 4.07 4.07 0.0 0 0 223.95 201.73
  A 4.07 4.07 0.0 0 0 228.02 197.66
  Z
  M 199.41 214.43
  A 4.07 4.07 0.0 0 0 195.34 210.36
  A 4.07 4.07 0.0 0 0 191.27 214.43
  A 4.07 4.07 0.0 0 0 195.34 218.50
  A 4.07 4.07 0.0 0 0 199.41 214.43
  Z
  M 180.26 219.65
  A 4.07 4.07 0.0 0 0 176.19 215.58
  A 4.07 4.07 0.0 0 0 172.12 219.65
  A 4.07 4.07 0.0 0 0 176.19 223.72
  A 4.07 4.07 0.0 0 0 180.26 219.65
  Z
  M 224.04 220.94
  A 4.08 4.08 0.0 0 0 219.96 216.86
  A 4.08 4.08 0.0 0 0 215.88 220.94
  A 4.08 4.08 0.0 0 0 219.96 225.02
  A 4.08 4.08 0.0 0 0 224.04 220.94
  Z"
/>
<path fill="#f2ae32" d="
  M 204.33 258.83
  C 231.60 263.69 251.66 243.06 268.39 225.14
  Q 269.24 224.23 269.82 223.66
  A 0.84 0.83 -35.3 0 0 269.99 222.71
  Q 267.84 218.12 271.20 214.69
  C 276.84 208.92 286.45 217.58 280.66 223.80
  Q 278.09 226.56 272.84 225.86
  A 0.53 0.52 -65.0 0 0 272.37 226.04
  Q 259.96 240.75 244.41 252.16
  Q 229.37 263.21 210.62 263.42
  A 0.26 0.26 0.0 0 0 210.36 263.67
  L 210.36 263.68
  Q 210.35 263.92 210.59 263.95
  C 228.49 265.97 243.15 261.14 257.29 250.30
  C 273.26 238.07 286.49 222.87 298.84 207.32
  Q 299.18 206.89 298.90 206.42
  L 298.31 205.41
  Q 298.09 205.04 298.01 204.62
  C 296.12 194.68 309.89 193.16 310.88 201.82
  C 311.52 207.32 307.47 209.54 302.35 209.26
  A 0.79 0.79 0.0 0 0 301.67 209.56
  C 286.99 228.25 270.35 247.32 249.65 259.59
  C 238.15 266.41 229.10 267.35 217.06 268.60
  Q 216.84 268.62 216.85 268.84
  L 216.85 268.85
  Q 216.86 269.07 217.09 269.07
  Q 229.22 269.23 232.50 269.02
  C 247.28 268.07 262.37 259.76 273.74 250.27
  C 290.43 236.33 304.71 219.34 318.12 202.31
  Q 318.45 201.88 318.16 201.43
  C 313.17 193.70 324.21 186.80 328.78 193.43
  C 331.32 197.10 330.13 201.83 325.92 203.65
  C 324.57 204.24 323.22 203.91 321.69 204.08
  Q 321.18 204.13 320.86 204.54
  Q 304.87 225.43 286.25 243.98
  C 269.00 261.15 248.25 273.94 223.22 272.75
  Q 223.08 272.74 223.06 272.88
  L 223.06 272.88
  Q 223.05 273.02 223.18 273.04
  C 258.28 278.58 286.20 257.05 307.99 232.36
  Q 308.32 231.98 308.13 231.52
  Q 305.76 225.77 309.88 222.74
  C 316.07 218.19 323.31 225.67 319.04 231.84
  Q 316.77 235.11 311.98 234.48
  Q 311.10 234.37 310.50 235.02
  C 297.52 249.10 283.35 262.06 266.41 270.40
  C 240.43 283.20 209.16 278.43 187.10 260.43
  C 179.61 254.33 171.39 243.69 170.83 233.64
  Q 170.79 232.89 171.12 233.56
  Q 179.83 250.96 199.25 254.50
  C 215.03 257.37 230.88 246.91 241.79 236.54
  Q 258.59 220.57 274.05 200.31
  Q 274.35 199.91 274.10 199.48
  C 270.77 193.66 276.91 187.52 282.76 190.30
  C 286.34 192.00 287.37 196.74 285.16 199.92
  Q 282.82 203.30 277.41 202.75
  A 1.05 1.05 0.0 0 0 276.49 203.15
  Q 262.08 221.87 245.08 238.32
  C 237.58 245.58 227.57 253.20 217.60 256.53
  C 212.75 258.14 208.84 258.11 204.33 258.70
  Q 203.89 258.75 204.33 258.83
  Z
  M 283.80 196.25
  A 4.07 4.07 0.0 0 0 279.73 192.18
  A 4.07 4.07 0.0 0 0 275.66 196.25
  A 4.07 4.07 0.0 0 0 279.73 200.32
  A 4.07 4.07 0.0 0 0 283.80 196.25
  Z
  M 327.59 197.52
  A 4.08 4.08 0.0 0 0 323.51 193.44
  A 4.08 4.08 0.0 0 0 319.43 197.52
  A 4.08 4.08 0.0 0 0 323.51 201.60
  A 4.08 4.08 0.0 0 0 327.59 197.52
  Z
  M 308.44 202.74
  A 4.08 4.08 0.0 0 0 304.36 198.66
  A 4.08 4.08 0.0 0 0 300.28 202.74
  A 4.08 4.08 0.0 0 0 304.36 206.82
  A 4.08 4.08 0.0 0 0 308.44 202.74
  Z
  M 279.83 219.51
  A 4.08 4.08 0.0 0 0 275.75 215.43
  A 4.08 4.08 0.0 0 0 271.67 219.51
  A 4.08 4.08 0.0 0 0 275.75 223.59
  A 4.08 4.08 0.0 0 0 279.83 219.51
  Z
  M 317.85 228.03
  A 4.07 4.07 0.0 0 0 313.78 223.96
  A 4.07 4.07 0.0 0 0 309.71 228.03
  A 4.07 4.07 0.0 0 0 313.78 232.10
  A 4.07 4.07 0.0 0 0 317.85 228.03
  Z"
/>
<path fill="#0897e9" d="
  M 142.34 308.34
  C 137.69 317.88 151.78 325.44 157.09 316.16
  A 0.31 0.31 0.0 0 1 157.50 316.04
  L 162.25 318.53
  Q 162.50 318.66 162.36 318.90
  Q 159.42 324.11 154.18 325.65
  C 140.49 329.69 129.94 314.22 138.70 302.99
  C 144.87 295.08 157.15 296.21 162.38 305.09
  Q 162.52 305.34 162.27 305.47
  L 157.50 307.95
  Q 157.23 308.10 157.07 307.83
  C 153.74 301.94 145.18 302.53 142.34 308.34
  Z"
/>
<path fill="#0897e9" d="
  M 195.92 312.00
  A 14.32 14.32 0.0 0 1 181.60 326.32
  A 14.32 14.32 0.0 0 1 167.28 312.00
  A 14.32 14.32 0.0 0 1 181.60 297.68
  A 14.32 14.32 0.0 0 1 195.92 312.00
  Z
  M 189.97 312.01
  A 8.35 8.35 0.0 0 0 181.62 303.66
  A 8.35 8.35 0.0 0 0 173.27 312.01
  A 8.35 8.35 0.0 0 0 181.62 320.36
  A 8.35 8.35 0.0 0 0 189.97 312.01
  Z"
/>
<path fill="#0897e9" d="
  M 324.42 312.00
  A 14.32 14.32 0.0 0 1 310.10 326.32
  A 14.32 14.32 0.0 0 1 295.78 312.00
  A 14.32 14.32 0.0 0 1 310.10 297.68
  A 14.32 14.32 0.0 0 1 324.42 312.00
  Z
  M 318.47 312.01
  A 8.35 8.35 0.0 0 0 310.12 303.66
  A 8.35 8.35 0.0 0 0 301.77 312.01
  A 8.35 8.35 0.0 0 0 310.12 320.36
  A 8.35 8.35 0.0 0 0 318.47 312.01
  Z"
/>
<path fill="#0897e9" d="
  M 201.91 298.54
  A 0.59 0.59 0.0 0 1 202.50 297.95
  L 210.71 297.93
  A 14.46 13.86 -0.1 0 1 225.19 311.77
  L 225.19 312.11
  A 14.46 13.86 -0.1 0 1 210.75 325.99
  L 202.54 326.01
  A 0.59 0.59 0.0 0 1 201.95 325.42
  L 201.91 298.54
  Z
  M 208.06 303.99
  L 208.12 319.97
  A 0.56 0.56 0.0 0 0 208.68 320.53
  L 210.98 320.52
  A 8.26 8.08 89.8 0 0 219.03 312.23
  L 219.03 311.65
  A 8.26 8.08 89.8 0 0 210.92 303.42
  L 208.62 303.43
  A 0.56 0.56 0.0 0 0 208.06 303.99
  Z"
/>
<path fill="#0897e9" d="
  M 238.18 309.29
  L 246.69 309.27
  A 0.32 0.32 0.0 0 1 247.01 309.59
  L 247.01 314.40
  A 0.32 0.32 0.0 0 1 246.69 314.72
  L 238.21 314.72
  A 0.32 0.32 0.0 0 0 237.89 315.04
  L 237.84 320.27
  A 0.32 0.32 0.0 0 0 238.16 320.59
  L 248.19 320.59
  A 0.32 0.32 0.0 0 1 248.51 320.90
  L 248.59 325.67
  A 0.32 0.32 0.0 0 1 248.27 326.00
  L 232.06 326.00
  A 0.32 0.32 0.0 0 1 231.74 325.68
  L 231.74 298.32
  A 0.32 0.32 0.0 0 1 232.06 298.00
  L 248.27 298.00
  A 0.32 0.32 0.0 0 1 248.59 298.32
  L 248.51 303.11
  A 0.32 0.32 0.0 0 1 248.19 303.43
  L 238.21 303.43
  A 0.32 0.32 0.0 0 0 237.89 303.75
  L 237.86 308.97
  A 0.32 0.32 0.0 0 0 238.18 309.29
  Z"
/>
<path fill="#0897e9" d="
  M 261.12 315.05
  L 261.13 325.67
  A 0.33 0.33 0.0 0 1 260.80 326.00
  L 255.33 326.00
  A 0.33 0.33 0.0 0 1 255.00 325.67
  L 255.00 298.33
  A 0.33 0.33 0.0 0 1 255.33 298.00
  L 271.50 298.00
  A 0.33 0.33 0.0 0 1 271.83 298.33
  L 271.76 303.10
  A 0.33 0.33 0.0 0 1 271.43 303.43
  L 261.45 303.43
  A 0.33 0.33 0.0 0 0 261.12 303.76
  L 261.13 308.96
  A 0.33 0.33 0.0 0 0 261.46 309.29
  L 269.93 309.27
  A 0.33 0.33 0.0 0 1 270.26 309.60
  L 270.27 314.39
  A 0.33 0.33 0.0 0 1 269.94 314.72
  L 261.45 314.72
  A 0.33 0.33 0.0 0 0 261.12 315.05
  Z"
/>
<path fill="#0897e9" d="
  M 283.23 320.52
  L 291.87 320.52
  A 0.34 0.34 0.0 0 1 292.21 320.86
  L 292.23 325.66
  A 0.34 0.34 0.0 0 1 291.89 326.00
  L 277.09 326.00
  A 0.34 0.34 0.0 0 1 276.75 325.66
  L 276.75 298.34
  A 0.34 0.34 0.0 0 1 277.09 298.00
  L 282.56 298.01
  A 0.34 0.34 0.0 0 1 282.90 298.35
  L 282.89 320.18
  A 0.34 0.34 0.0 0 0 283.23 320.52
  Z"
/>
<path fill="#0897e9" d="
  M 346.73 307.02
  L 341.94 325.58
  Q 341.83 326.00 341.41 326.00
  L 335.27 326.00
  Q 334.76 326.00 334.62 325.50
  L 327.16 298.22
  Q 327.10 298.01 327.32 298.01
  L 333.25 298.00
  Q 333.57 298.00 333.65 298.31
  L 338.28 316.25
  Q 338.62 317.55 338.97 316.25
  L 343.77 298.64
  Q 343.95 298.00 344.61 298.00
  L 349.44 298.00
  Q 349.89 298.00 350.01 298.44
  L 354.95 316.25
  Q 355.28 317.46 355.60 316.24
  L 360.21 298.23
  A 0.31 0.30 8.1 0 1 360.52 298.00
  L 366.50 298.02
  A 0.20 0.19 6.9 0 1 366.69 298.26
  L 359.21 325.58
  Q 359.09 326.00 358.66 326.00
  L 352.51 326.00
  Q 352.02 326.00 351.90 325.53
  L 347.12 307.02
  Q 346.92 306.27 346.73 307.02
  Z"
/>
<rect fill="#f2ae32" x="175.29" y="344.04" width="1.30" height="11.88" rx="0.38"/>
<path fill="#f2ae32" d="
  M 186.25 347.05
  L 186.25 355.52
  Q 186.25 355.92 185.85 355.93
  L 185.43 355.95
  Q 184.99 355.96 184.99 355.52
  L 184.99 345.52
  Q 184.99 342.46 186.83 344.90
  L 192.92 352.99
  Q 193.55 353.83 193.55 352.78
  L 193.53 344.51
  A 0.47 0.46 90.0 0 1 193.99 344.04
  L 194.44 344.04
  Q 194.83 344.04 194.83 344.44
  L 194.79 353.96
  Q 194.77 357.52 192.64 354.67
  L 186.80 346.87
  Q 186.26 346.15 186.25 347.05
  Z"
/>
<path fill="#f2ae32" d="
  M 204.50 347.08
  L 204.50 355.40
  Q 204.50 355.88 204.03 355.92
  L 203.68 355.94
  Q 203.22 355.97 203.22 355.51
  L 203.23 345.73
  Q 203.24 342.46 205.20 345.07
  L 211.32 353.18
  Q 211.80 353.82 211.81 353.02
  L 211.81 344.33
  Q 211.81 344.08 212.06 344.06
  L 212.75 343.99
  Q 213.04 343.97 213.04 344.25
  L 213.04 354.26
  Q 213.04 357.53 211.08 354.92
  L 205.04 346.89
  Q 204.50 346.17 204.50 347.08
  Z"
/>
<path fill="#f2ae32" d="
  M 232.96 350.00
  A 6.07 6.07 0.0 0 1 226.89 356.07
  A 6.07 6.07 0.0 0 1 220.82 350.00
  A 6.07 6.07 0.0 0 1 226.89 343.93
  A 6.07 6.07 0.0 0 1 232.96 350.00
  Z
  M 231.70 350.00
  A 4.81 4.81 0.0 0 0 226.89 345.19
  A 4.81 4.81 0.0 0 0 222.08 350.00
  A 4.81 4.81 0.0 0 0 226.89 354.81
  A 4.81 4.81 0.0 0 0 231.70 350.00
  Z"
/>
<path fill="#f2ae32" d="
  M 244.85 353.47
  L 248.05 344.46
  Q 248.21 344.00 248.70 344.01
  L 249.08 344.02
  Q 249.57 344.03 249.41 344.49
  L 245.90 354.22
  Q 244.55 357.97 243.20 354.23
  L 239.63 344.35
  Q 239.54 344.09 239.82 344.06
  L 240.56 343.99
  Q 240.91 343.95 241.03 344.29
  L 244.21 353.47
  Q 244.52 354.38 244.85 353.47
  Z"
/>
<path fill="#f2ae32" d="
  M 257.16 353.79
  L 256.63 355.44
  A 0.72 0.71 7.4 0 1 255.97 355.94
  L 255.51 355.96
  Q 255.00 355.98 255.17 355.50
  L 258.80 345.51
  Q 260.05 342.07 261.30 345.51
  L 264.93 355.51
  A 0.34 0.33 81.0 0 1 264.61 355.96
  L 264.18 355.94
  Q 263.56 355.91 263.40 355.31
  L 263.00 353.79
  A 0.72 0.72 0.0 0 0 262.30 353.25
  L 257.95 353.21
  Q 257.35 353.21 257.16 353.79
  Z
  M 257.95 351.59
  A 0.31 0.31 0.0 0 0 258.24 352.00
  L 261.89 351.99
  A 0.31 0.31 0.0 0 0 262.18 351.58
  L 260.34 346.36
  A 0.31 0.31 0.0 0 0 259.76 346.37
  L 257.95 351.59
  Z"
/>
<path fill="#f2ae32" d="
  M 275.26 345.56
  L 275.27 355.67
  A 0.28 0.28 0.0 0 1 274.99 355.95
  L 274.28 355.96
  A 0.28 0.28 0.0 0 1 274.00 355.68
  L 274.00 345.54
  A 0.28 0.28 0.0 0 0 273.72 345.26
  L 270.86 345.26
  A 0.28 0.28 0.0 0 1 270.58 344.93
  L 270.70 344.23
  A 0.28 0.28 0.0 0 1 270.98 344.00
  L 278.41 344.03
  A 0.28 0.28 0.0 0 1 278.69 344.32
  L 278.67 344.98
  A 0.28 0.28 0.0 0 1 278.39 345.25
  L 275.54 345.28
  A 0.28 0.28 0.0 0 0 275.26 345.56
  Z"
/>
<rect fill="#f2ae32" x="285.52" y="344.05" width="1.30" height="11.90" rx="0.37"/>
<path fill="#f2ae32" d="
  M 306.96 350.00
  A 6.07 6.07 0.0 0 1 300.89 356.07
  A 6.07 6.07 0.0 0 1 294.82 350.00
  A 6.07 6.07 0.0 0 1 300.89 343.93
  A 6.07 6.07 0.0 0 1 306.96 350.00
  Z
  M 305.70 350.00
  A 4.81 4.81 0.0 0 0 300.89 345.19
  A 4.81 4.81 0.0 0 0 296.08 350.00
  A 4.81 4.81 0.0 0 0 300.89 354.81
  A 4.81 4.81 0.0 0 0 305.70 350.00
  Z"
/>
<path fill="#f2ae32" d="
  M 316.25 347.05
  L 316.25 355.52
  Q 316.25 355.92 315.85 355.93
  L 315.43 355.95
  Q 314.99 355.97 314.99 355.52
  L 314.99 345.52
  Q 314.99 342.46 316.83 344.90
  L 322.92 352.99
  Q 323.55 353.83 323.55 352.78
  L 323.53 344.50
  A 0.47 0.46 0.0 0 1 324.00 344.04
  L 324.43 344.04
  Q 324.83 344.04 324.83 344.43
  L 324.79 354.03
  Q 324.77 357.52 322.68 354.73
  L 316.80 346.87
  Q 316.26 346.15 316.25 347.05
  Z"
/>
</svg>
